# AST/ASF file generated using VICON BodyLanguage
# -----------------------------------------------
:version 1.10
:name VICON
:units
  mass 1.0
  length 0.45
  angle deg
:documentation
   .ast/.asf automatically generated from VICON data using
   VICON BodyBuilder and BodyLanguage model FoxedUp or BRILLIANT.MOD
:root
   order TX TY TZ RX RY RZ
   axis XYZ
   position 0 0 0  
   orientation 0 0 0 
:bonedata
  begin
     id 1 
     name lhipjoint
     direction 0.575328 -0.747301 0.332475 
     length 2.40933 
     axis 0 0 0  XYZ
  end
  begin
     id 2 
     name lfemur
     direction 0.34202 -0.939693 0  
     length 7.31453  
     axis 0 0 20  XYZ
    dof rx ry rz
    limits (-160.0 20.0)
           (-70.0 70.0)
           (-60.0 70.0)
  end
  begin
     id 3 
     name ltibia
     direction 0.34202 -0.939693 0   
     length 7.82185   
     axis 0 0 20   XYZ
    dof rx
    limits (-10.0 170.0)
  end
  begin
     id 4 
     name lfoot
     direction 0.0795993 -0.218697 0.972541   
     length 2.19173   
     axis -90 7.62852e-016 20   XYZ
    dof rx rz
    limits (-45.0 90.0)
           (-70.0 20.0)
  end
  begin
     id 5 
     name ltoes
     direction 1.53537e-011 -4.21894e-011 1   
     length 1.10023   
     axis -90 7.62852e-016 20   XYZ
    dof rx
    limits (-90.0 20.0)
  end
  begin
     id 6 
     name rhipjoint
     direction -0.513884 -0.783789 0.348708   
     length 2.29716  
     axis 0 0 0  XYZ 
  end
  begin
     id 7 
     name rfemur
     direction -0.34202 -0.939693 0   
     length 7.59573   
     axis 0 0 -20   XYZ
    dof rx ry rz
    limits (-160.0 20.0)
           (-70.0 70.0)
           (-70.0 60.0)
  end
  begin
     id 8 
     name rtibia
     direction -0.34202 -0.939693 0   
     length 7.66402   
     axis 0 0 -20   XYZ
    dof rx
    limits (-10.0 170.0)
 end
 begin
     id 9 
     name rfoot
     direction -0.137793 -0.378584 0.915253   
     length 2.27056  
     axis -90 -7.62852e-016 -20   XYZ
    dof rx rz
    limits (-45.0 90.0)
           (-20.0 70.0)
  end
  begin
     id 10 
     name rtoes
     direction -1.53493e-011 -4.22159e-011 1   
     length 1.11766   
     axis -90 -7.62852e-016 -20   XYZ
    dof rx
    limits (-90.0 20.0)
  end
  begin
     id 11 
     name lowerback
     direction -0.00732775 0.998356 -0.05685   
     length 2.16513   
     axis 0 0 0   XYZ
    dof rx ry rz
    limits (-20.0 45.0)
           (-30.0 30.0)
           (-30.0 30.0)
  end
  begin
     id 12 
     name upperback
     direction 0.0218081 0.999627 -0.0164647   
     length 2.16755   
     axis 0 0 0   XYZ
    dof rx ry rz
    limits (-20.0 45.0)
           (-30.0 30.0)
           (-30.0 30.0)
  end
  begin
     id 13 
     name thorax
     direction 0.02365 0.999661 0.0108914   
     length 2.16932   
     axis 0 0 0   XYZ
    dof rx ry rz
    limits (-20.0 45.0)
           (-30.0 30.0)
           (-30.0 30.0)
  end
  begin
     id 14 
     name lowerneck
     direction -0.0523929 0.978385 0.200044   
     length 1.63877   
     axis 0 0 0   XYZ
    dof rx ry rz
    limits (-20.0 45.0)
           (-30.0 30.0)
           (-30.0 30.0)
  end
  begin
     id 15 
     name upperneck
     direction 0.0448674 0.981321 -0.187074   
     length 1.69014   
     axis 0 0 0   XYZ
    dof rx ry rz
    limits (-20.0 45.0)
           (-30.0 30.0)
           (-30.0 30.0)
  end
  begin
     id 16
     name head
     direction 0.0199089 0.996118 -0.0857429  
     length 1.70094  
     axis 0 0 0   XYZ
    dof rx ry rz
    limits (-20.0 45.0)
           (-30.0 30.0)
           (-30.0 30.0)
  end
  begin
     id 17 
     name lclavicle
     direction 0.940366 0.30191 -0.156722  
     length 3.37521  
     axis 0 0 0   XYZ
    dof ry rz
    limits (-20.0 10.0)
           (0.0 20.0)
  end
  begin
     id 18 
     name lhumerus
     direction 1 -4.4897e-011 -1.7911e-027   
     length 5.25287   
     axis 180 -30 -90   XYZ
    dof rx ry rz
    limits (-60.0 90.0)
           (-90.0 90.0)
           (-90.0 90.0)
  end
  begin
     id 19
     name lradius
     direction 1 -4.48951e-011 1.04424e-027   
     length 3.51014   
     axis 180 -30 -90   XYZ
    dof rx
    limits (-10.0 170.0)
  end
  begin
     id 20
     name lwrist
     direction 1 -4.48997e-011 -9.5942e-028   
     length 1.75507   
     axis 8.48502e-016 90 90   XYZ
    dof ry
    limits (-180.0 0.0)
 end
  begin
     id 21 
     name lhand
     direction 1 -4.48831e-011 -1.90777e-027   
     length 0.706179   
     axis 1.22306e-015 90 90   XYZ
    dof rx rz
    limits (-90.0 90.0)
           (-45.0 45.0)
  end
  begin
     id 22 
     name lfingers
     direction 1 -4.49108e-011 -3.85244e-027   
     length 0.569339   
     axis 2.44611e-015 90 90   XYZ
    dof rx
    limits (0.0 90.0)
  end
  begin
     id 23
     name lthumb
     direction 0.707107 -6.34953e-011 0.707107   
     length 0.817461   
     axis -90 45 -1.62303e-014   XYZ
    dof rx rz
    limits (-45.0 45.0)
           (-45.0 45.0)
  end
  begin
     id 24 
     name rclavicle
     direction -0.905329 0.382405 -0.184787   
     length 3.30787  
     axis 0 0 0   XYZ 
    dof ry rz
    limits (-10.0 20.0)
           (-20.0 0.0)
  end
  begin
     id 25 
     name rhumerus
     direction -1 -4.48953e-011 -9.15316e-029  
     length 5.28721   
     axis 180 30 90   XYZ
    dof rx ry rz
    limits (-90.0 60.0)
           (-90.0 90.0)
           (-90.0 90.0)
  end
  begin
     id 26 
     name rradius
     direction -1 -4.48987e-011 9.37824e-028   
     length 3.50544   
     axis 180 30 90   XYZ
    dof rx
    limits (-10.0 170.0)
  end
  begin
     id 27 
     name rwrist
     direction -1 -4.48967e-011 -9.58414e-028   
     length 1.75272   
     axis 8.48502e-016 -90 -90   XYZ
    dof ry
    limits (-180.0 0.0)
  end
  begin
     id 28
     name rhand
     direction -1 -4.48904e-011 -1.91266e-027   
     length 0.884996   
     axis 1.22306e-015 -90 -90   XYZ
    dof rx rz
    limits (-90.0 90.0)
           (-45.0 45.0)
  end
  begin
     id 29
     name rfingers
     direction -1 -4.4909e-011 -3.85015e-027   
     length 0.713507   
     axis 2.44611e-015 -90 -90   XYZ
    dof rx
    limits (0.0 90.0)
  end
  begin
     id 30
     name rthumb
     direction -0.707107 -6.34853e-011 0.707107   
     length 1.02446   
     axis -90 -45 1.62303e-014   XYZ
    dof rx rz
    limits (-45.0 45.0)
           (-45.0 45.0)
  end
:hierarchy
  begin
    root lhipjoint rhipjoint lowerback
    lhipjoint lfemur
    lfemur ltibia
    ltibia lfoot
    lfoot ltoes
    rhipjoint rfemur
    rfemur rtibia
    rtibia rfoot
    rfoot rtoes
    lowerback upperback
    upperback thorax
    thorax lowerneck lclavicle rclavicle
    lowerneck upperneck
    upperneck head
    lclavicle lhumerus
    lhumerus lradius
    lradius lwrist
    lwrist lhand lthumb
    lhand lfingers
    rclavicle rhumerus
    rhumerus rradius
    rradius rwrist
    rwrist rhand rthumb
    rhand rfingers
  end

#!OML:ASF F:\twosubjects\two\Thursday\Session 1\justin.ASF
:FULLY-SPECIFIED
:DEGREES
142
root 9.65211 17.9953 8.62496 -175.234 7.09157 -177.809
lowerback -4.89888 -0.375262 -8.2156
upperback 2.89699 0.149646 8.54047
thorax 5.88286 -0.268835 14.1894
lowerneck -18.5635 -5.62683 -11.4261
upperneck 30.3005 -4.19649 4.21961
head 13.8014 -2.0502 3.03356
rclavicle -1.23246e-014 -4.92986e-014
rhumerus -19.9542 -0.695851 -76.7611
rradius 34.4866
rwrist -9.96849
rhand -13.8349 14.4209
rfingers 7.12502
rthumb 12.2883 -15.1981
lclavicle -1.23246e-014 -4.92986e-014
lhumerus -29.7852 -2.32145 99.9921
lradius 33.8514
lwrist -5.69509
lhand -0.904668 34.8384
lfingers 7.12502
lthumb 24.7236 63.2608
rfemur -20.9315 -3.13982 25.9956
rtibia 38.92
rfoot -23.7045 -4.94204
rtoes -0.799387
lfemur -5.9662 9.59172 -14.8458
ltibia 34.7729
lfoot -18.7161 0.727693
ltoes -15.7454
143
root 9.65266 18.0009 8.65811 -174.987 6.98966 -177.805
lowerback -4.8134 -0.605262 -8.49071
upperback 2.65875 -0.140371 8.73833
thorax 5.67345 -0.400886 14.5643
lowerneck -18.3116 -5.46754 -11.553
upperneck 30.0696 -3.98105 4.25544
head 13.6313 -1.96924 3.10299
rclavicle -2.98177e-014 8.26944e-014
rhumerus -20.0015 -0.940402 -76.699
rradius 33.8803
rwrist -9.86363
rhand -14.3232 13.469
rfingers 7.12502
rthumb 11.8174 -16.1776
lclavicle -2.98177e-014 8.26944e-014
lhumerus -29.7346 -1.73074 100.059
lradius 33.4136
lwrist -5.95096
lhand -0.978925 34.9284
lfingers 7.12502
lthumb 24.6524 63.3606
rfemur -21.3669 -3.44692 26.0303
rtibia 38.988
rfoot -23.6025 -4.75778
rtoes -0.305184
lfemur -5.83607 9.31955 -15.2383
ltibia 34.3821
lfoot -19.1396 0.417449
ltoes -17.0627
144
root 9.64994 17.9984 8.69388 -174.777 7.05593 -177.708
lowerback -4.75107 -1.08308 -8.65018
upperback 2.46079 -0.761318 9.0904
thorax 5.63647 -0.705288 15.0301
lowerneck -18.0249 -5.07801 -12.2435
upperneck 29.8956 -3.29231 4.45932
head 13.4536 -1.72178 3.41849
rclavicle 3.57812e-014 2.70347e-014
rhumerus -19.9342 -0.237142 -76.6252
rradius 33.2082
rwrist -9.49716
rhand -14.6656 12.5984
rfingers 7.12502
rthumb 11.4872 -17.0669
lclavicle 3.57812e-014 2.70347e-014
lhumerus -29.7663 -0.202503 100.039
lradius 33.1484
lwrist -6.24672
lhand -1.39791 34.8457
lfingers 7.12502
lthumb 24.2508 63.3321
rfemur -21.7647 -3.51728 26.1648
rtibia 39.0605
rfoot -23.4519 -4.74052
rtoes -0.725773
lfemur -5.63521 9.03158 -15.5687
ltibia 34.0504
lfoot -19.767 -0.0914367
ltoes -16.8751
145
root 9.64915 17.9985 8.7246 -174.655 7.00449 -178.005
lowerback -4.73947 -1.77569 -9.11931
upperback 2.33453 -1.6677 9.38036
thorax 5.82594 -1.19514 15.595
lowerneck -17.7447 -4.67361 -13.405
upperneck 29.772 -2.46315 4.77807
head 13.2924 -1.44849 3.88036
rclavicle 1.74931e-014 -6.20208e-014
rhumerus -19.6827 1.13912 -76.5828
rradius 32.4719
rwrist -9.03467
rhand -14.5751 13.0988
rfingers 7.12502
rthumb 11.5745 -16.5616
lclavicle 1.74931e-014 -6.20208e-014
lhumerus -29.8674 2.29591 99.8925
lradius 33.116
lwrist -7.002
lhand -2.014 34.3627
lfingers 7.12502
lthumb 23.66 62.9267
rfemur -22.0734 -3.71439 25.8745
rtibia 39.0979
rfoot -23.5121 -4.75952
rtoes -2.34816
lfemur -5.43748 8.67921 -16.2984
ltibia 33.8651
lfoot -20.1727 -0.69079
ltoes -18.0885
146
root 9.65022 18.0076 8.75011 -174.616 6.76721 -178.318
lowerback -4.74151 -1.36321 -9.65562
upperback 2.4457 -1.08901 9.19537
thorax 5.76359 -0.932412 15.7768
lowerneck -18.0531 -5.24383 -12.8606
upperneck 29.626 -3.48489 4.80164
head 13.3917 -1.8423 3.61478
rclavicle 2.38542e-015 6.83819e-014
rhumerus -19.6823 -1.27082 -76.1533
rradius 31.9678
rwrist -8.69771
rhand -14.3985 13.4812
rfingers 7.12502
rthumb 11.7448 -16.1695
lclavicle 2.38542e-015 6.83819e-014
lhumerus -29.5379 1.03926 100.177
lradius 32.9479
lwrist -7.42474
lhand -2.31379 33.9558
lfingers 7.12502
lthumb 23.3724 62.5567
rfemur -22.2338 -4.1677 25.5557
rtibia 39.1019
rfoot -23.7281 -4.48397
rtoes -2.68542
lfemur -5.23132 8.32943 -17.0165
ltibia 33.8761
lfoot -20.3955 -1.40849
ltoes -19.1473
147
root 9.648 18.0167 8.78279 -174.492 6.6335 -178.386
lowerback -4.67312 -1.14296 -9.78535
upperback 2.50618 -0.789263 9.11494
thorax 5.68767 -0.784259 15.7912
lowerneck -18.6784 -5.6565 -12.6721
upperneck 29.7466 -4.1813 5.05015
head 13.6495 -2.10283 3.5585
rclavicle 2.10712e-014 6.67916e-014
rhumerus -19.5648 -3.05205 -75.9183
rradius 31.4703
rwrist -8.86119
rhand -14.3184 13.1658
rfingers 7.12502
rthumb 11.8221 -16.4805
lclavicle 2.10712e-014 6.67916e-014
lhumerus -29.279 0.460041 100.21
lradius 32.8888
lwrist -7.62064
lhand -1.96696 34.3117
lfingers 7.12502
lthumb 23.7051 62.8699
rfemur -22.4755 -4.46539 25.4865
rtibia 39.0837
rfoot -23.878 -4.2716
rtoes -2.40935
lfemur -5.20732 8.00755 -17.5236
ltibia 34.0836
lfoot -20.5567 -2.27186
ltoes -17.1424
148
root 9.64216 18.0229 8.82982 -174.089 6.71253 -178.292
lowerback -4.66031 -0.896378 -9.72069
upperback 2.47207 -0.451675 9.135
thorax 5.52465 -0.59241 15.8043
lowerneck -19.4561 -6.04113 -12.729
upperneck 30.0636 -4.73247 5.34314
head 14.0251 -2.315 3.58997
rclavicle -2.18663e-014 -1.27222e-014
rhumerus -19.4515 -4.6252 -75.6013
rradius 30.9131
rwrist -8.72659
rhand -14.6931 13.2452
rfingers 7.12502
rthumb 11.4607 -16.4215
lclavicle -2.18663e-014 -1.27222e-014
lhumerus -28.9917 0.187049 100.302
lradius 32.829
lwrist -7.59368
lhand -1.5751 34.8372
lfingers 7.12502
lthumb 24.0809 63.3461
rfemur -23.0667 -4.35831 25.6064
rtibia 39.0202
rfoot -23.8368 -4.32813
rtoes -2.50806
lfemur -5.52685 7.82657 -17.9029
ltibia 34.4261
lfoot -20.6351 -3.07225
ltoes -13.7622
149
root 9.63962 18.0292 8.87714 -173.729 6.86444 -178.23
lowerback -4.6143 -0.824064 -9.83322
upperback 2.35481 -0.33818 9.26372
thorax 5.33696 -0.515068 16.0424
lowerneck -19.627 -6.07057 -12.7675
upperneck 30.0424 -4.72596 5.26874
head 14.052 -2.33001 3.56346
rclavicle 1.39149e-014 -3.33958e-014
rhumerus -19.5063 -5.46918 -75.2583
rradius 30.3841
rwrist -8.4193
rhand -14.7209 13.5062
rfingers 7.12502
rthumb 11.434 -16.162
lclavicle 1.39149e-014 -3.33958e-014
lhumerus -28.9047 0.523808 100.411
lradius 32.8715
lwrist -7.42655
lhand -1.48006 35.4578
lfingers 7.12502
lthumb 24.172 63.9547
rfemur -23.5856 -4.07318 25.6908
rtibia 38.9197
rfoot -23.7006 -4.31639
rtoes -2.03854
lfemur -5.72204 7.81715 -18.3014
ltibia 34.7275
lfoot -20.6767 -3.25462
ltoes -13.0533
150
root 9.63966 18.0414 8.91093 -173.709 6.90089 -178.151
lowerback -4.44106 -0.948349 -9.96745
upperback 2.3335 -0.495437 9.44524
thorax 5.27918 -0.590816 16.3391
lowerneck -19.3975 -5.93368 -13.0892
upperneck 29.7497 -4.50721 5.39247
head 13.8656 -2.26032 3.69964
rclavicle 6.75868e-015 -5.725e-014
rhumerus -19.5493 -5.71382 -75.0175
rradius 29.8811
rwrist -8.21098
rhand -14.2604 13.421
rfingers 7.12502
rthumb 11.878 -16.2221
lclavicle 6.75868e-015 -5.725e-014
lhumerus -28.9834 1.25183 100.411
lradius 33.129
lwrist -7.33352
lhand -1.41306 36.251
lfingers 7.12502
lthumb 24.2362 64.7393
rfemur -23.6188 -3.95941 25.7673
rtibia 38.8078
rfoot -23.6644 -4.1465
rtoes -1.79858
lfemur -5.4108 7.72678 -18.6214
ltibia 34.8446
lfoot -20.3158 -3.11111
ltoes -14.4414
151
root 9.64043 18.0531 8.93459 -173.704 6.86547 -178.04
lowerback -4.45817 -0.991465 -9.99171
upperback 2.40873 -0.542021 9.53585
thorax 5.39278 -0.626327 16.4695
lowerneck -19.3278 -5.95666 -13.3973
upperneck 29.5839 -4.58419 5.76032
head 13.8081 -2.28342 3.88215
rclavicle -3.97569e-016 4.29375e-014
rhumerus -19.6331 -6.07662 -74.8851
rradius 29.5483
rwrist -8.14686
rhand -14.3147 13.0893
rfingers 7.12502
rthumb 11.8256 -16.5568
lclavicle -3.97569e-016 4.29375e-014
lhumerus -28.9552 1.58928 100.362
lradius 33.4698
lwrist -7.2976
lhand -0.918505 36.9249
lfingers 7.12502
lthumb 24.7103 65.3491
rfemur -23.5701 -4.03451 25.8728
rtibia 38.6822
rfoot -23.7034 -3.90027
rtoes -2.74347
lfemur -4.96039 7.58913 -18.8804
ltibia 34.7385
lfoot -19.5913 -2.99962
ltoes -14.9554
152
root 9.63287 18.0474 8.96164 -173.663 6.81509 -178.002
lowerback -4.52428 -1.06232 -10.0202
upperback 2.40797 -0.629363 9.58333
thorax 5.46427 -0.677255 16.5423
lowerneck -18.9971 -5.95722 -13.2936
upperneck 29.3366 -4.64423 5.65853
head 13.6317 -2.31296 3.80555
rclavicle 1.03368e-014 3.18055e-015
rhumerus -19.9485 -6.07972 -74.8301
rradius 29.3672
rwrist -8.28309
rhand -14.7987 12.5383
rfingers 7.12502
rthumb 11.3589 -17.1341
lclavicle 1.03368e-014 3.18055e-015
lhumerus -29.0535 1.98223 100.263
lradius 33.7648
lwrist -7.04078
lhand -0.887514 36.923
lfingers 7.12502
lthumb 24.74 65.3432
rfemur -23.6107 -4.32871 25.9075
rtibia 38.5236
rfoot -23.7834 -3.64661
rtoes -3.44036
lfemur -4.51456 7.46413 -19.2555
ltibia 34.4567
lfoot -18.4993 -2.88202
ltoes -15.5358
153
root 9.60905 18.0303 9.0021 -173.684 6.62138 -178.129
lowerback -4.29629 -1.15712 -10.0242
upperback 2.38805 -0.773269 9.58325
thorax 5.36291 -0.74126 16.5252
lowerneck -18.8115 -5.99283 -13.1135
upperneck 29.0659 -4.70909 5.36296
head 13.4705 -2.36524 3.63458
rclavicle -1.59028e-015 9.70069e-014
rhumerus -20.0877 -6.21058 -74.794
rradius 29.0725
rwrist -7.99251
rhand -15.4456 11.7057
rfingers 7.12502
rthumb 10.735 -18
lclavicle -1.59028e-015 9.70069e-014
lhumerus -29.2121 2.11443 100.321
lradius 34.1266
lwrist -5.81352
lhand -2.09016 36.225
lfingers 7.12502
lthumb 23.5869 64.7984
rfemur -23.7402 -4.91561 25.7664
rtibia 38.383
rfoot -23.7534 -3.37768
rtoes -2.30845
lfemur -4.10404 6.98769 -19.8615
ltibia 34.0412
lfoot -16.8545 -2.9073
ltoes -14.8796
154
root 9.61579 18.0242 9.04474 -173.409 6.89315 -178.078
lowerback -4.40713 -0.950529 -10.1626
upperback 2.46089 -0.474647 9.58979
thorax 5.40335 -0.602327 16.6573
lowerneck -19.2874 -6.20593 -13.1255
upperneck 29.1067 -5.02749 5.515
head 13.6292 -2.49219 3.63481
rclavicle -1.47101e-014 -1.46306e-013
rhumerus -20.0504 -7.04933 -74.7105
rradius 28.7665
rwrist -7.45323
rhand -15.7521 11.544
rfingers 7.12502
rthumb 10.4393 -18.1768
lclavicle -1.47101e-014 -1.46306e-013
lhumerus -29.1905 1.46621 100.567
lradius 34.5966
lwrist -4.0362
lhand -3.01291 36.2671
lfingers 7.12502
lthumb 22.7016 64.9517
rfemur -24.1712 -4.7299 25.9011
rtibia 38.3355
rfoot -23.5876 -3.37036
rtoes -3.14704
lfemur -3.90342 6.99569 -20.1876
ltibia 33.419
lfoot -15.6766 -3.16646
ltoes -12.5794
155
root 9.603 18.0306 9.0868 -173.24 6.72252 -177.884
lowerback -4.2801 -0.829151 -9.85499
upperback 2.48084 -0.324879 9.59933
thorax 5.29065 -0.499549 16.4774
lowerneck -19.647 -6.4119 -13.2568
upperneck 29.2168 -5.36209 5.87288
head 13.8078 -2.6067 3.74016
rclavicle -7.55382e-015 1.59028e-015
rhumerus -20.2844 -7.68425 -74.5912
rradius 28.6399
rwrist -7.32541
rhand -15.5795 11.9285
rfingers 7.12502
rthumb 10.6058 -17.7839
lclavicle -7.55382e-015 1.59028e-015
lhumerus -29.1571 1.16324 100.537
lradius 34.9928
lwrist -3.66487
lhand -2.28856 37.4002
lfingers 7.12502
lthumb 23.3966 65.998
rfemur -24.543 -4.89057 26.1426
rtibia 38.4246
rfoot -23.4567 -3.38161
rtoes -5.21701
lfemur -3.54042 6.58515 -20.3936
ltibia 32.4933
lfoot -15.7204 -2.75631
ltoes -11.6639
156
root 9.59521 18.0284 9.13054 -172.958 6.65227 -177.957
lowerback -4.29262 -0.809145 -9.93333
upperback 2.39946 -0.296389 9.57634
thorax 5.19914 -0.477819 16.4986
lowerneck -19.813 -6.5098 -13.225
upperneck 29.2837 -5.49457 5.86582
head 13.8866 -2.66228 3.70703
rclavicle 6.36111e-015 9.54166e-015
rhumerus -20.6567 -7.5643 -74.5501
rradius 28.6208
rwrist -7.55275
rhand -15.8536 11.6901
rfingers 7.12502
rthumb 10.3414 -18.0356
lclavicle 6.36111e-015 9.54166e-015
lhumerus -29.1737 1.5192 100.247
lradius 35.2979
lwrist -4.14444
lhand -11.0062 30.0818
lfingers 7.12502
lthumb 15.0145 59.5175
rfemur -25.1759 -4.86365 26.0974
rtibia 38.6586
rfoot -23.3638 -3.46045
rtoes -4.13962
lfemur -3.22564 6.17272 -20.8915
ltibia 31.2119
lfoot -16.4085 -1.24831
ltoes -11.462
